<svg width="32" height="32" viewBox="0 0 32 32" fill="none" xmlns="http://www.w3.org/2000/svg">
<g clip-path="url(#clip0)">
<path d="M16.0001 16C16.2561 16 16.5121 15.9027 16.7068 15.7067L21.7068 10.7067C22.0974 10.316 22.0974 9.68269 21.7068 9.29202C21.3161 8.90136 20.6828 8.90136 20.2921 9.29202L15.9988 13.5854L11.7054 9.29202C11.3148 8.90136 10.6814 8.90136 10.2908 9.29202C9.90009 9.68269 9.90009 10.316 10.2908 10.7067L15.2908 15.7067C15.4881 15.9027 15.7441 16 16.0001 16Z" fill="#010101"/>
<path d="M16 16C16.552 16 17 15.552 17 15V1C17 0.448 16.552 0 16 0C15.448 0 15 0.448 15 1V15C15 15.552 15.448 16 16 16Z" fill="#010101"/>
<path d="M3 31.9998H29C30.6547 31.9998 32 30.6532 32 28.9998V13.6665C32 12.0132 30.6547 10.6665 29 10.6665H24.3333C23.7813 10.6665 23.3333 11.1145 23.3333 11.6665C23.3333 12.2185 23.7813 12.6665 24.3333 12.6665H29C29.552 12.6665 30 13.1158 30 13.6665V28.9998C30 29.5505 29.552 29.9998 29 29.9998H3C2.448 29.9998 2 29.5505 2 28.9998V13.6665C2 13.1158 2.448 12.6665 3 12.6665H7.66667C8.21867 12.6665 8.66667 12.2185 8.66667 11.6665C8.66667 11.1145 8.21867 10.6665 7.66667 10.6665H3C1.34533 10.6665 0 12.0132 0 13.6665V28.9998C0 30.6532 1.34533 31.9998 3 31.9998Z" fill="#010101"/>
<path d="M16.0001 23.9946C16.5841 23.9946 17.1681 23.856 17.7001 23.58L31.4628 16.3933C31.9521 16.1373 32.1415 15.532 31.8868 15.0426C31.6295 14.5546 31.0241 14.3667 30.5375 14.62L16.7775 21.8066C16.2921 22.0586 15.7095 22.06 15.2201 21.8053L1.46279 14.62C0.972122 14.368 0.369453 14.5546 0.113455 15.0426C-0.141212 15.532 0.0481224 16.136 0.537455 16.3933L14.2975 23.58C14.8308 23.856 15.4161 23.9946 16.0001 23.9946Z" fill="#010101"/>
</g>
<defs>
<clipPath id="clip0">
<rect width="32" height="32" transform="matrix(-1 0 0 1 32 0)" fill="white"/>
</clipPath>
</defs>
</svg>
