<svg width="31" height="31" viewBox="0 0 31 31" fill="none" xmlns="http://www.w3.org/2000/svg">
<g clip-path="url(#clip0)">
<path d="M30.0303 14.5317H17.7597C17.225 14.5317 16.791 14.0977 16.791 13.563C16.791 13.0282 17.225 12.5942 17.7597 12.5942H30.0303C30.565 12.5942 30.999 13.0282 30.999 13.563C30.999 14.0977 30.565 14.5317 30.0303 14.5317Z" fill="#010101"/>
<path d="M25.1867 19.3755C24.9387 19.3755 24.6908 19.2811 24.5021 19.0914C24.1237 18.7128 24.1237 18.0993 24.5021 17.7209L28.6612 13.562L24.5021 9.40282C24.1237 9.02442 24.1237 8.41092 24.5021 8.03252C24.8807 7.65387 25.4942 7.65387 25.8726 8.03252L30.7162 12.8761C31.0946 13.2545 31.0946 13.868 30.7162 14.2464L25.8726 19.09C25.6827 19.2811 25.4348 19.3755 25.1867 19.3755Z" fill="#010101"/>
<path d="M10.3331 31.001C10.0566 31.001 9.79433 30.9622 9.53229 30.8808L1.75912 28.2911C0.70147 27.9217 0 26.9362 0 25.8346V2.58528C0 1.16059 1.15863 0.00195312 2.58333 0.00195312C2.85957 0.00195312 3.12185 0.0407398 3.38413 0.122097L11.1571 2.71181C12.215 3.08123 12.9162 4.06675 12.9162 5.16838V28.4177C12.9162 29.8424 11.7578 31.001 10.3331 31.001ZM2.58333 1.93939C2.2281 1.93939 1.93744 2.23006 1.93744 2.58528V25.8346C1.93744 26.1096 2.12215 26.3653 2.38561 26.457L10.1224 29.0352C10.1779 29.0531 10.2503 29.0635 10.3331 29.0635C10.6883 29.0635 10.9787 28.7729 10.9787 28.4177V5.16838C10.9787 4.89333 10.794 4.63767 10.5306 4.5459L2.79382 1.96777C2.73824 1.9498 2.66587 1.93939 2.58333 1.93939Z" fill="#010101"/>
<path d="M19.6971 10.3341C19.1624 10.3341 18.7284 9.90008 18.7284 9.36535V3.55303C18.7284 2.66306 18.004 1.93842 17.114 1.93842H2.58322C2.04849 1.93842 1.6145 1.50443 1.6145 0.969696C1.6145 0.434961 2.04849 0.000976562 2.58322 0.000976562H17.114C19.0735 0.000976562 20.6658 1.59359 20.6658 3.55303V9.36535C20.6658 9.90008 20.2318 10.3341 19.6971 10.3341Z" fill="#010101"/>
<path d="M17.1141 27.1251H11.9475C11.4127 27.1251 10.9788 26.6911 10.9788 26.1564C10.9788 25.6216 11.4127 25.1876 11.9475 25.1876H17.1141C18.0041 25.1876 18.7285 24.463 18.7285 23.573V17.7607C18.7285 17.226 19.1625 16.792 19.6972 16.792C20.232 16.792 20.666 17.226 20.666 17.7607V23.573C20.666 25.5325 19.0736 27.1251 17.1141 27.1251Z" fill="#010101"/>
</g>
<defs>
<clipPath id="clip0">
<rect width="31" height="31" fill="white"/>
</clipPath>
</defs>
</svg>
